<svg width="49" height="37" viewBox="0 0 49 37" fill="none" xmlns="http://www.w3.org/2000/svg">
<g clip-path="url(#clip0_98_742)">
<path d="M11.4142 36.2075V17.758L5.69249 12.5234L0.561646 9.61862V32.9517C0.561646 34.7531 2.02123 36.2075 3.8175 36.2075H11.4142Z" fill="#4285F4"/>
<path d="M37.4603 36.2075H45.0571C46.8588 36.2075 48.3129 34.7477 48.3129 32.9517V9.6188L42.5014 12.9459L37.4603 17.758V36.2075Z" fill="#34A853"/>
<path d="M11.4142 17.758L10.6356 10.5492L11.4142 3.64969L24.4372 13.4171L37.4603 3.64969L38.3312 10.1767L37.4603 17.758L24.4372 27.5253L11.4142 17.758Z" fill="#EA4335"/>
<path d="M37.4603 3.6497V17.758L48.3129 9.61862V5.27754C48.3129 1.25132 43.7169 -1.04391 40.4993 1.3707L37.4603 3.6497Z" fill="#FBBC04"/>
<path d="M0.561646 9.61864L5.55296 13.3623L11.4142 17.758V3.64973L8.37532 1.37072C5.15211 -1.04408 0.561646 1.25134 0.561646 5.27737V9.61864Z" fill="#C5221F"/>
</g>
<defs>
<clipPath id="clip0_98_742">
<rect width="47.7513" height="36" fill="white" transform="translate(0.561646 0.384705)"/>
</clipPath>
</defs>
</svg>
