<svg width="37" height="37" viewBox="0 0 37 37" fill="none" xmlns="http://www.w3.org/2000/svg">
<g clip-path="url(#clip0_98_748)">
<path d="M0.990181 17.9235C0.989337 20.9718 1.78584 23.9483 3.30037 26.5718L0.845337 35.5355L10.0186 33.1303C12.5558 34.5115 15.3985 35.2352 18.2873 35.2354H18.2949C27.8314 35.2354 35.5943 27.4753 35.5984 17.9371C35.6002 13.3152 33.8019 8.96907 30.5347 5.69926C27.2679 2.42972 22.9233 0.628177 18.2942 0.626068C8.75662 0.626068 0.994259 8.38576 0.990321 17.9235" fill="url(#paint0_linear_98_748)"/>
<path d="M0.372393 17.9179C0.371408 21.0759 1.19646 24.1588 2.76499 26.8762L0.221924 36.1613L9.7241 33.6698C12.3423 35.0973 15.29 35.85 18.2896 35.8511H18.2973C28.1759 35.8511 36.2177 27.8118 36.2219 17.9322C36.2236 13.1442 34.3606 8.64183 30.9766 5.25488C27.5922 1.86834 23.0922 0.00196875 18.2973 0C8.41699 0 0.37633 8.03813 0.372393 17.9179ZM6.03128 26.4083L5.67649 25.845C4.18502 23.4735 3.3978 20.733 3.39892 17.919C3.40202 9.7072 10.0851 3.02625 18.3029 3.02625C22.2826 3.02794 26.0227 4.57931 28.8357 7.39406C31.6487 10.2091 33.1965 13.9511 33.1955 17.9311C33.1919 26.1429 26.5087 32.8247 18.2973 32.8247H18.2914C15.6177 32.8233 12.9955 32.1053 10.7086 30.7484L10.1644 30.4256L4.52561 31.904L6.03128 26.4083Z" fill="url(#paint1_linear_98_748)"/>
<path d="M13.8173 10.4271C13.4818 9.68134 13.1287 9.66629 12.8096 9.65321C12.5483 9.64196 12.2496 9.64281 11.9512 9.64281C11.6525 9.64281 11.1672 9.75517 10.757 10.2031C10.3464 10.6514 9.18933 11.7347 9.18933 13.9382C9.18933 16.1417 10.7943 18.2713 11.018 18.5704C11.242 18.8689 14.1164 23.5354 18.6687 25.3307C22.4521 26.8225 23.222 26.5258 24.0431 26.451C24.8644 26.3765 26.6931 25.3679 27.0661 24.3221C27.4395 23.2764 27.4395 22.3801 27.3276 22.1927C27.2156 22.0061 26.9169 21.8941 26.469 21.6702C26.0212 21.4463 23.8191 20.3627 23.4086 20.2132C22.998 20.0638 22.6995 19.9893 22.4008 20.4377C22.1021 20.8855 21.2444 21.8941 20.983 22.1927C20.7218 22.4921 20.4604 22.5294 20.0127 22.3054C19.5645 22.0807 18.1221 21.6083 16.4108 20.0827C15.0794 18.8955 14.1805 17.4295 13.9193 16.981C13.658 16.5333 13.8913 16.2906 14.1158 16.0674C14.3171 15.8667 14.5639 15.5444 14.788 15.283C15.0113 15.0214 15.0859 14.8348 15.2352 14.5361C15.3847 14.2372 15.3099 13.9756 15.1981 13.7516C15.0859 13.5276 14.2155 11.3126 13.8173 10.4271Z" fill="white"/>
</g>
<defs>
<linearGradient id="paint0_linear_98_748" x1="1738.5" y1="3491.57" x2="1738.5" y2="0.626068" gradientUnits="userSpaceOnUse">
<stop stop-color="#1FAF38"/>
<stop offset="1" stop-color="#60D669"/>
</linearGradient>
<linearGradient id="paint1_linear_98_748" x1="1800.22" y1="3616.13" x2="1800.22" y2="0" gradientUnits="userSpaceOnUse">
<stop stop-color="#F9F9F9"/>
<stop offset="1" stop-color="white"/>
</linearGradient>
<clipPath id="clip0_98_748">
<rect width="36" height="36.2812" fill="white" transform="translate(0.221924)"/>
</clipPath>
</defs>
</svg>
