<svg width="260" height="206" viewBox="0 0 260 206" fill="none" xmlns="http://www.w3.org/2000/svg">
<path d="M222.817 197.859L130 160.732L37.1828 197.859L59.4632 149.585L130 160.722L200.537 149.585L222.817 197.859Z" fill="#052E16"/>
<path d="M130.018 32.5527L212.064 6L215.346 32.5527L224.689 117.402L177.336 127.923L129.982 138.444L35.3108 117.402L44.6539 32.5527L47.9363 6L130.018 32.5527Z" fill="#052E16"/>
<path d="M215.346 32.5527L230.244 28.2802L255 138.444L202.093 149.585M215.346 32.5527L224.689 117.402L177.336 127.923L129.982 138.444M215.346 32.5527L212.064 6L130.018 32.5527M130.018 32.5527L47.9363 6L44.6539 32.5527M130.018 32.5527L129.982 138.444M44.6539 32.5527L29.756 28.2802L5 138.444L57.9072 149.585M44.6539 32.5527L35.3108 117.402L129.982 138.444M129.982 160.725L222.817 197.859L200.537 149.585L129.982 160.725ZM130.018 160.725L37.1828 197.859L59.4632 149.585L130.018 160.725Z" stroke="#FBBF24" stroke-width="8"/>
</svg>
