<svg width="51" height="39" viewBox="0 0 51 39" fill="none" xmlns="http://www.w3.org/2000/svg">
<g clip-path="url(#clip0_95_621)">
<path d="M12.1226 38.0596V18.7413L6.13143 13.2602L0.758972 10.2186V34.6505C0.758972 36.5368 2.28729 38.0596 4.16815 38.0596H12.1226Z" fill="#4285F4"/>
<path d="M39.3953 38.0596H47.3498C49.2363 38.0596 50.759 36.5311 50.759 34.6505V10.2188L44.6738 13.7026L39.3953 18.7413V38.0596Z" fill="#34A853"/>
<path d="M12.1226 18.7413L11.3074 11.193L12.1226 3.96863L25.759 14.196L39.3953 3.96863L40.3072 10.803L39.3953 18.7413L25.759 28.9686L12.1226 18.7413Z" fill="#EA4335"/>
<path d="M39.3953 3.96862V18.7413L50.759 10.2186V5.67311C50.759 1.45729 45.9465 -0.946032 42.5773 1.58229L39.3953 3.96862Z" fill="#FBBC04"/>
<path d="M0.758972 10.2186L5.98534 14.1386L12.1226 18.7413V3.96864L8.94061 1.58232C5.56561 -0.946199 0.758972 1.45732 0.758972 5.67294V10.2186Z" fill="#C5221F"/>
</g>
<defs>
<clipPath id="clip0_95_621">
<rect width="50" height="37.6953" fill="white" transform="translate(0.758972 0.549866)"/>
</clipPath>
</defs>
</svg>
