<svg width="292" height="423" viewBox="0 0 292 423" fill="none" xmlns="http://www.w3.org/2000/svg">
<rect width="292" height="423" fill="#052E16"/>
<path d="M264.967 244.86V304.86H254.967V244.86H264.967Z" fill="#FBBF24"/>
<path d="M18.4275 304.86H244.967V244.86H234.944V294.86H18.4275V304.86Z" fill="#FBBF24"/>
<path fill-rule="evenodd" clip-rule="evenodd" d="M135.523 304.86C143.921 304.86 150.729 297.145 150.729 287.63C150.729 278.114 143.921 270.4 135.523 270.4C127.125 270.4 120.317 278.114 120.317 287.63C120.317 297.145 127.125 304.86 135.523 304.86ZM135.523 294.672C138.955 294.672 141.738 291.519 141.738 287.63C141.738 283.741 138.955 280.588 135.523 280.588C132.091 280.588 129.308 283.741 129.308 287.63C129.308 291.519 132.091 294.672 135.523 294.672Z" fill="#FBBF24"/>
<path fill-rule="evenodd" clip-rule="evenodd" d="M90.5228 304.86C98.921 304.86 105.729 297.145 105.729 287.63C105.729 278.114 98.921 270.4 90.5228 270.4C82.1246 270.4 75.3165 278.114 75.3165 287.63C75.3165 297.145 82.1246 304.86 90.5228 304.86ZM90.5229 294.672C93.9553 294.672 96.7377 291.519 96.7377 287.63C96.7377 283.741 93.9553 280.588 90.5229 280.588C87.0906 280.588 84.3082 283.741 84.3082 287.63C84.3082 291.519 87.0906 294.672 90.5229 294.672Z" fill="#FBBF24"/>
<ellipse cx="90.523" cy="257.63" rx="6.21474" ry="7.0418" fill="#FBBF24"/>
<path d="M225.111 253.845L195.967 270.083C215.967 270.083 215.967 275.447 215.967 284.86V304.86H205.967V294.86C205.967 284.86 207.9 279.723 195.967 279.723C184.034 279.723 175.967 279.951 175.967 279.951V279.488V271.333L220.666 245.579L225.111 253.845Z" fill="#FBBF24"/>
<path d="M144.968 279.722H114.933V270.083H144.968C164.968 270.083 164.968 275.446 164.968 284.86V304.86H154.968V294.86C154.968 284.86 156.901 279.722 144.968 279.722Z" fill="#FBBF24"/>
<path d="M18.1935 394.017L35.6655 354.817H44.6255L62.1535 394.017H52.6335L38.2975 359.409H41.8815L27.4895 394.017H18.1935ZM26.9295 385.617L29.3375 378.729H49.4975L51.9615 385.617H26.9295ZM65.6045 394.017V352.465H74.3405V394.017H65.6045ZM107.044 385.057L106.54 374.585L125.3 354.817H135.38L118.468 373.017L113.428 378.393L107.044 385.057ZM98.9236 394.017V354.817H107.94V394.017H98.9236ZM125.748 394.017L111.804 376.937L117.74 370.497L136.332 394.017H125.748ZM157.585 394.017V388.137L157.025 386.849V376.321C157.025 374.454 156.446 372.998 155.289 371.953C154.169 370.908 152.433 370.385 150.081 370.385C148.475 370.385 146.889 370.646 145.321 371.169C143.79 371.654 142.483 372.326 141.401 373.185L138.265 367.081C139.907 365.924 141.886 365.028 144.201 364.393C146.515 363.758 148.867 363.441 151.257 363.441C155.849 363.441 159.414 364.524 161.953 366.689C164.491 368.854 165.761 372.233 165.761 376.825V394.017H157.585ZM148.401 394.465C146.049 394.465 144.033 394.073 142.353 393.289C140.673 392.468 139.385 391.366 138.489 389.985C137.593 388.604 137.145 387.054 137.145 385.337C137.145 383.545 137.574 381.977 138.433 380.633C139.329 379.289 140.729 378.244 142.633 377.497C144.537 376.713 147.019 376.321 150.081 376.321H158.089V381.417H151.033C148.979 381.417 147.561 381.753 146.777 382.425C146.03 383.097 145.657 383.937 145.657 384.945C145.657 386.065 146.086 386.961 146.945 387.633C147.841 388.268 149.054 388.585 150.585 388.585C152.041 388.585 153.347 388.249 154.505 387.577C155.662 386.868 156.502 385.841 157.025 384.497L158.369 388.529C157.734 390.47 156.577 391.945 154.897 392.953C153.217 393.961 151.051 394.465 148.401 394.465ZM191.979 363.441C194.368 363.441 196.496 363.926 198.363 364.897C200.267 365.83 201.76 367.286 202.843 369.265C203.926 371.206 204.467 373.708 204.467 376.769V394.017H195.731V378.113C195.731 375.686 195.19 373.894 194.107 372.737C193.062 371.58 191.568 371.001 189.627 371.001C188.246 371.001 186.995 371.3 185.875 371.897C184.792 372.457 183.934 373.334 183.299 374.529C182.702 375.724 182.403 377.254 182.403 379.121V394.017H173.667V352.465H182.403V372.233L180.443 369.713C181.526 367.697 183.075 366.148 185.091 365.065C187.107 363.982 189.403 363.441 191.979 363.441ZM230.866 394.017V388.137L230.306 386.849V376.321C230.306 374.454 229.727 372.998 228.57 371.953C227.45 370.908 225.714 370.385 223.362 370.385C221.756 370.385 220.17 370.646 218.602 371.169C217.071 371.654 215.764 372.326 214.682 373.185L211.546 367.081C213.188 365.924 215.167 365.028 217.482 364.393C219.796 363.758 222.148 363.441 224.538 363.441C229.13 363.441 232.695 364.524 235.234 366.689C237.772 368.854 239.042 372.233 239.042 376.825V394.017H230.866ZM221.682 394.465C219.33 394.465 217.314 394.073 215.634 393.289C213.954 392.468 212.666 391.366 211.77 389.985C210.874 388.604 210.426 387.054 210.426 385.337C210.426 383.545 210.855 381.977 211.714 380.633C212.61 379.289 214.01 378.244 215.914 377.497C217.818 376.713 220.3 376.321 223.362 376.321H231.37V381.417H224.314C222.26 381.417 220.842 381.753 220.058 382.425C219.311 383.097 218.938 383.937 218.938 384.945C218.938 386.065 219.367 386.961 220.226 387.633C221.122 388.268 222.335 388.585 223.866 388.585C225.322 388.585 226.628 388.249 227.786 387.577C228.943 386.868 229.783 385.841 230.306 384.497L231.65 388.529C231.015 390.47 229.858 391.945 228.178 392.953C226.498 393.961 224.332 394.465 221.682 394.465ZM248.012 394.017V363.217C248.012 359.82 249.02 357.113 251.036 355.097C253.052 353.044 255.927 352.017 259.66 352.017C260.93 352.017 262.143 352.148 263.3 352.409C264.495 352.67 265.503 353.081 266.324 353.641L264.028 359.969C263.543 359.633 263.002 359.372 262.404 359.185C261.807 358.998 261.172 358.905 260.5 358.905C259.231 358.905 258.242 359.278 257.532 360.025C256.86 360.734 256.524 361.817 256.524 363.273V366.073L256.748 369.825V394.017H248.012ZM243.364 371.281V364.561H264.252V371.281H243.364Z" fill="#FBBF24"/>
<path d="M201.424 162.781V172.241L226.493 197.31V211.5L156.962 176.498" stroke="#FBBF24" stroke-width="6"/>
<path d="M80.8446 162.781V172.241L55.7757 197.31V211.5L125.306 176.498" stroke="#FBBF24" stroke-width="6"/>
<path d="M142.202 77.3434L144.704 149.521L246.359 115.816L225.715 40.7476L142.202 77.3434Z" stroke="#FBBF24" stroke-width="6"/>
<path d="M140.131 77.6415V149.564L35.125 116.427L55.9369 40.7476L140.131 77.6415Z" stroke="#FBBF24" stroke-width="6"/>
<path d="M246.359 55.8834L266.697 132.509L141.202 164.514" stroke="#FBBF24" stroke-width="6"/>
<path d="M37.0364 55.8834L16.6975 132.509L142.346 164.541" stroke="#FBBF24" stroke-width="6"/>
</svg>
